# xmcd CD database file
#
# Track frame offsets:
#	182
#	17410
#	38762
#	58067
#	75285
#	80867
#	96490
#	108885
#	128572
#	141407
#	159752
#	173915
#	192110
#
# Disc length: 2765 seconds
#
# Revision: 3
# Processed by: cddbd v1.4PL0 Copyright (c) Steve Scherf et al.
# Submitted via: CDex 1.50Beta7
#
DISCID=9c0acb0d
DTITLE=Joyce - Joyce Ao Vivo
DYEAR=1989
DGENRE=
TTITLE0=Feminina
TTITLE1=Todos os Instrumentos
TTITLE2=Mistérios
TTITLE3=Pindorama Blues
TTITLE4=Monsieur Binot
TTITLE5=Barraco no Metro
TTITLE6=Triste/ Vivo Sonhando/ Ãguas de Marco
TTITLE7=Aos Pés da Cruz
TTITLE8=Clareana
TTITLE9=Capitão
TTITLE10=Falando de Uma Revolução
TTITLE11=Mulheres do Brasil
TTITLE12=Dans Mon Ile/ Chanson Douce
EXTD=YEAR: 1989
EXTT0=
EXTT1=
EXTT2=
EXTT3=
EXTT4=
EXTT5=
EXTT6=
EXTT7=
EXTT8=
EXTT9=
EXTT10=
EXTT11=
EXTT12=
PLAYORDER=
